<?xml version="1.0" encoding="utf-8"?>
<!-- Generator: Adobe Illustrator 19.0.0, SVG Export Plug-In . SVG Version: 6.00 Build 0)  -->
<!DOCTYPE svg PUBLIC "-//W3C//DTD SVG 1.1//EN" "http://www.w3.org/Graphics/SVG/1.1/DTD/svg11.dtd">
<svg version="1.1" id="Layer_1" xmlns="http://www.w3.org/2000/svg" xmlns:xlink="http://www.w3.org/1999/xlink" x="0px" y="0px"
	 viewBox="94 219.8 578 290" style="enable-background:new 94 219.8 578 290;" xml:space="preserve">
<style type="text/css">
	.st0{fill:#454D59;}
	.st1{fill:#3DBCB2;}
</style>
<g>
	<g>
		<path class="st0" d="M143.5,294.1h28.7v13.7h0.5c6.1-8.8,16.2-15.9,28.5-15.9c13.5,0,22.1,6.1,26.2,16.4h0.5
			c2.9-4.7,7.6-9.1,12.3-12c4.9-2.9,10.5-4.4,16.7-4.4c21.6,0,31.2,17.2,31.2,45.9v76.3H256v-70.9c0-13.5-1.5-24.5-11-24.5
			c-5.6,0-10.1,3.9-12,10.8c-0.7,2-1,5.2-1,8.6v76h-32.1v-75.3c0-8.8-0.7-20.1-10.8-20.1c-4.9,0-9.8,3.4-12,10.8
			c-0.7,2.2-1.2,5.6-1.2,9.1v75.5h-32.1L143.5,294.1z"/>
		<path class="st0" d="M385,386.3v27.8h-28.7v-11.9h-0.7c-6.4,9.2-15.9,13.9-26.5,13.9c-18.2,0-31.6-15.4-31.6-36.7
			c0-32,27.7-44.9,54.9-45.1v-2.7c0-9.7-2-11.4-13.5-11.4c-9.6,0-34.7,0-34.7,0l9.6-25.8c0,0,18.7,0,35.6,0
			c36.6,0,35.6,22.3,35.6,47.1L385,386.3L385,386.3z M353.4,355c-10.5,0.3-25.5,4-25.5,20.8c0,11.9,6.6,16.4,11.5,16.4
			c5.4,0,11-3.2,13.2-10.4c0.5-1.7,0.7-3.5,0.7-5.7L353.4,355L353.4,355z"/>
		<g>
			<path class="st1" d="M485.9,306.1v-12l-28.6,0.1l0.1,12.2h-0.5c-4.7-9.3-12.5-14.5-22.1-14.5c-22.1,0-40.2,23.3-40.2,63.3
				c0,28.7,10.5,58.1,37.3,58.1c9.1,0,17.4-4.4,21.6-12h0.5v7.4c0,18.4-6.4,29.2-22.6,29.2c-9.3,0-20.6-0.1-20.6-0.1l-9.3,25.4
				c0,0,19.9,0,31.2,0c17.4,0,30.2-4.9,39-13.2c9.3-9.1,14.2-22.9,14.4-47.4c-9.6-11.2-13.7-29.3-13.7-47.3
				C472.3,333.6,477.6,316.9,485.9,306.1z M453.9,368c0,3.2-0.2,6.9-1.5,9.6c-2.5,6.4-6.4,8.6-10.5,8.6c-9.3,0-15.7-11.3-15.7-33.6
				c0-19.6,4.7-35.3,16.2-35.3c5.4,0,8.8,4.7,10.3,9.8c0.7,2.4,1.2,5.6,1.2,8.8V368L453.9,368z"/>
			<path class="st1" d="M570.1,294.1l-28.6,0.1l0.1,12.2H541c-4.6-9.3-12.5-14.5-22-14.5c-10.2,0-19.5,5-26.6,14.2
				c-8.3,10.8-13.6,27.5-13.6,49.1c0,17.9,4.1,36.1,13.7,47.3c5.8,6.7,13.5,10.9,23.6,10.9c9.1,0,17.4-4.4,21.6-12h0.5v7.4
				c0,18.4-6.4,29.2-22.6,29.2c-9.3,0-18.1-0.1-18.1-0.1l-9.3,25.4c0,0,17.4,0,28.7,0c17.4,0,30.2-4.9,39-13.2
				c9.6-9.3,14.5-23.5,14.5-49.3L570.1,294.1z M538.1,368c0,3.2-0.2,6.9-1.5,9.6c-2.4,6.4-6.4,8.6-10.5,8.6
				c-9.3,0-15.7-11.3-15.7-33.6c0-19.6,4.7-35.3,16.2-35.3c5.4,0,8.8,4.7,10.3,9.8c0.7,2.4,1.2,5.6,1.2,8.8V368L538.1,368z"/>
		</g>
		<g>
			<g>
				<g>
					<polygon class="st0" points="116.1,294.3 116.1,316.5 95,316.5 95,414.2 127.2,414.2 127.2,294.3 					"/>
				</g>
				<rect x="95" y="294.3" class="st1" width="16.1" height="17.2"/>
			</g>
		</g>
		<path class="st0" d="M667.5,386.3v27.8h-28.7v-11.9h-0.7c-6.4,9.2-15.9,13.9-26.5,13.9c-18.2,0-31.6-15.4-31.6-36.7
			c0-32,27.7-44.9,54.9-45.1v-2.7c0-9.7-2-11.4-13.5-11.4c-9.6,0-34.7,0-34.7,0l9.6-25.8c0,0,18.7,0,35.6,0
			c36.5,0,35.6,22.3,35.6,47.1L667.5,386.3L667.5,386.3z M635.9,355c-10.5,0.3-25.5,4-25.5,20.8c0,11.9,6.6,16.4,11.5,16.4
			c5.4,0,11-3.2,13.2-10.4c0.5-1.7,0.7-3.5,0.7-5.7L635.9,355L635.9,355z"/>
	</g>
</g>
</svg>
